<svg id="Capa_1" enable-background="new 0 0 512 512" height="512" viewBox="0 0 512 512" width="512" xmlns="http://www.w3.org/2000/svg" xmlns:xlink="http://www.w3.org/1999/xlink"><linearGradient id="SVGID_1_" gradientUnits="userSpaceOnUse" x1="256" x2="256" y1="512" y2="0"><stop offset="0" stop-color="#c3ffe8"/><stop offset=".9973" stop-color="#f0fff4"/></linearGradient><linearGradient id="SVGID_2_" gradientUnits="userSpaceOnUse" x1="256" x2="256" y1="407" y2="105"><stop offset="0" stop-color="#9cffac"/><stop offset="1" stop-color="#00b59c"/></linearGradient><g><g><circle cx="256" cy="256" fill="url(#SVGID_1_)" r="256"/></g><g><g><path d="m352.926 267.385c-3.769-.802-9.706-1.752-16.583-1.752-16.731 0-30.511 5.308-40.966 15.776-16.586 16.615-16.679 38.917-14.948 51.837l-15.485 11.444v-67.064l27.43-20.274c3.497.565 7.572 1.072 12.456 1.072 16.731 0 30.52-5.308 40.974-15.776 19.412-19.428 16.261-46.753 13.998-57.604-.714-3.46-3.412-6.18-6.877-6.912-3.769-.802-9.706-1.752-16.583-1.752-16.731 0-30.511 5.308-40.966 15.776-16.586 16.615-16.679 38.917-14.948 51.837l-15.485 11.444v-50.541c10.321-7.729 26.742-23.796 26.742-47.806 0-27.482-21.519-44.565-30.772-50.641-2.96-1.935-6.807-1.935-9.767 0-9.253 6.075-30.772 23.159-30.772 50.641 0 24.01 16.421 40.077 26.742 47.806v50.534l-15.441-11.421c1.76-12.896 1.702-35.139-14.991-51.853-13.876-13.894-35.081-18.713-57.557-14.024-3.456.724-6.154 3.417-6.894 6.877-2.29 10.817-5.519 38.072 14.024 57.64 10.455 10.468 24.243 15.776 40.974 15.776 4.855 0 8.951-.509 12.472-1.077l27.414 20.276v67.06l-15.441-11.421c1.76-12.896 1.702-35.139-14.991-51.853-13.876-13.885-35.081-18.713-57.557-14.024-3.456.724-6.154 3.417-6.894 6.877-2.29 10.817-5.519 38.072 14.024 57.64 10.455 10.468 24.243 15.776 40.974 15.776 4.855 0 8.951-.509 12.472-1.077l27.414 20.276v31.197c0 4.933 3.987 8.925 8.914 8.925s8.914-3.992 8.914-8.925v-31.195l27.43-20.274c3.497.565 7.572 1.072 12.456 1.072 16.731 0 30.52-5.308 40.974-15.776 19.412-19.428 16.261-46.753 13.998-57.604-.715-3.461-3.414-6.18-6.878-6.913z" fill="url(#SVGID_2_)"/></g></g></g></svg>